<?xml version="1.0"?><!DOCTYPE svg  PUBLIC '-//W3C//DTD SVG 1.1//EN'  'http://www.w3.org/Graphics/SVG/1.1/DTD/svg11.dtd'><svg enable-background="new 0 0 91 91" height="91px" id="Layer_1" version="1.1" viewBox="0 0 91 91" width="91px" xml:space="preserve" xmlns="http://www.w3.org/2000/svg" xmlns:xlink="http://www.w3.org/1999/xlink"><g><g><path d="M86.539,29.678c1.838-1.22,1.838-3.157,1.838-3.157V15.549c0,0-11.521-11.596-43.62-11.596    S2.625,15.743,2.625,15.743v10.184c0,1.544,1.533,3.752,1.533,3.752" fill="#FF889C"/><path d="M9.418,59.535c0,0-1.962,1.631-1.962,4.596v12.342c0,0,10.068,10.572,37.791,10.572    c27.724,0,36.771-11.402,36.771-11.402V64.727c0,0,0.47-2.896-1.773-4.35" fill="#FF889C"/><path d="M28.24,30.435v10.356c0,0-0.767,4.744,2.631,4.744H42.69c0,0,2.628-0.591,2.628-4.269V31.86    c0,0-3.938-7.122-10.947-7.122C28.208,24.739,28.24,30.435,28.24,30.435z" fill="#F4F2E8"/><path d="M15.349,29.583v9.083c0,0-0.569,4.263,1.977,4.263h8.87c0,0,1.974-0.536,1.974-3.838v-8.227    c0,0-2.955-6.396-8.216-6.396C15.324,24.467,15.349,29.583,15.349,29.583z" fill="#F4F2E8"/><path d="M4.158,29.678v7.983c0,0-0.503,3.842,1.718,3.842h7.754c0,0,1.718-0.482,1.718-3.458v-7.208    c0,0-2.578-5.771-7.174-5.771C4.131,25.068,4.158,29.678,4.158,29.678z" fill="#F4F2E8"/><path d="M86.539,29.678v7.983c0,0,0.506,3.842-1.718,3.842h-7.759c0,0-1.723-0.482-1.723-3.458v-7.208    c0,0,2.585-5.771,7.182-5.771C86.561,25.068,86.539,29.678,86.539,29.678z" fill="#F4F2E8"/><path d="M75.287,29.583v9.083c0,0,0.575,4.263-1.973,4.263h-8.873c0,0-1.971-0.536-1.971-3.838v-8.227    c0,0,2.956-6.396,8.213-6.396C75.313,24.467,75.287,29.583,75.287,29.583z" fill="#F4F2E8"/><path d="M62.395,30.435v10.356c0,0,0.767,4.744-2.627,4.744H47.944c0,0-2.626-0.591-2.626-4.269V31.86    c0,0,3.944-7.122,10.947-7.122C62.434,24.739,62.395,30.435,62.395,30.435z" fill="#F4F2E8"/><path d="M44.979,55.291L44.979,55.291c0-1.797-1.436-1.043-3.206-1.043h-6.667c-1.77,0-3.206-0.754-3.206,1.043    v12.4c0,0,0.67,5.219,6.706,5.219c6.033,0,6.373-4.506,6.373-4.506V55.291z" fill="#F4F2E8"/><path d="M31.795,54.996L31.795,54.996c0-1.639-1.275-0.748-2.847-0.748h-5.917c-1.567,0-2.844-0.891-2.844,0.748    v11.271c0,0,0,4.807,4.128,4.807c5.827,0,7.479-4.162,7.479-4.162L31.795,54.996L31.795,54.996z" fill="#F4F2E8"/><path d="M20.188,55.445L20.188,55.445c0-1.578-1.151-2.855-2.568-2.855h-5.345c-1.414,0-2.563,1.277-2.563,2.855    v8.627c0,0,0,4.627,3.723,4.627c5.261,0,6.755-4.004,6.755-4.004L20.188,55.445L20.188,55.445z" fill="#F4F2E8"/><path d="M69.665,55.445L69.665,55.445c0-1.578,1.151-2.855,2.565-2.855h5.346c1.413,0,2.563,1.277,2.563,2.855    v8.627c0,0,0,4.627-3.723,4.627c-5.261,0-6.753-4.004-6.753-4.004L69.665,55.445L69.665,55.445z" fill="#F4F2E8"/><path d="M58.057,54.996L58.057,54.996c0-1.639,1.274-0.748,2.845-0.748h5.92c1.567,0,2.845-0.891,2.845,0.748    v11.271c0,0-0.071,4.807-4.129,4.807c-5.827,0-7.479-4.162-7.479-4.162L58.057,54.996L58.057,54.996z" fill="#F4F2E8"/><g><path d="M58.057,55.291L58.057,55.291c0-1.797-1.437-1.043-3.207-1.043h-6.668c-1.763,0-3.203-0.754-3.203,1.043     v12.4c0,0,0.669,5.219,6.703,5.219c6.035,0,6.375-4.506,6.375-4.506V55.291z" fill="#F4F2E8"/><g><path d="M90.619,26.519V14.624l-0.651-0.656C89.471,13.467,77.411,1.71,44.756,1.71      c-32.76,0-43.402,12.065-43.841,12.579l-0.534,0.627v11.009c0,1.643,0.946,3.447,1.533,4.411v7.192      c-0.104,0.937-0.216,3.398,1.161,4.968c0.707,0.809,1.702,1.252,2.801,1.252h8.064l0.274-0.077      c0.043,0.055,0.074,0.116,0.12,0.169c0.752,0.86,1.813,1.332,2.989,1.332h9.169l0.109-0.03c0.178,0.366,0.385,0.724,0.662,1.05      c0.617,0.723,1.745,1.59,3.606,1.59H42.94l0.241-0.055c0.591-0.133,1.386-0.49,2.136-1.127c0.75,0.637,1.545,0.994,2.135,1.127      l0.242,0.055h12.072c1.859,0,2.986-0.865,3.604-1.59c0.277-0.326,0.483-0.683,0.661-1.049l0.107,0.029h9.174      c1.178,0,2.239-0.474,2.989-1.332c0.051-0.058,0.084-0.125,0.131-0.185c0.008,0.002,0.017,0.007,0.023,0.009l0.297,0.084h8.066      c1.099,0,2.095-0.445,2.804-1.253c1.377-1.57,1.262-4.031,1.158-4.968v-6.803C90.556,28.959,90.619,26.795,90.619,26.519z       M44.757,6.197c26.516,0,38.579,8.154,41.377,10.379l0.001,7.396c-1.005-0.741-2.229-1.147-3.611-1.147      c-2.546,0-4.567,1.235-6.066,2.673c-0.279-0.497-0.627-0.986-1.07-1.431c-1.197-1.205-2.823-1.842-4.703-1.842      c-3.254,0-5.748,1.788-7.463,3.641c-0.252-0.375-0.542-0.745-0.891-1.095c-1.5-1.51-3.542-2.274-6.063-2.274      c-5.174,0-8.868,3.137-10.948,5.551c-2.077-2.415-5.771-5.551-10.949-5.551c-2.521,0-4.561,0.764-6.061,2.274      c-0.349,0.351-0.64,0.72-0.891,1.095c-1.715-1.853-4.209-3.64-7.466-3.64c-1.878,0-3.504,0.636-4.702,1.841      c-0.434,0.436-0.775,0.912-1.052,1.397c-1.494-1.423-3.501-2.639-6.025-2.639c-1.242,0-2.362,0.319-3.306,0.919v-7.065      C7.307,14.478,18.248,6.197,44.757,6.197z M6.402,39.261c-0.059-0.362-0.07-0.894-0.021-1.307l0.02-8.29      c-0.001-0.212,0.113-1.415,0.685-1.99c0.168-0.17,0.443-0.362,1.088-0.362c2.488,0,4.346,2.99,4.933,4.064v6.669      c0,0.629-0.109,1.009-0.208,1.216H6.402z M17.645,40.686c-0.106-0.407-0.071-2.389-0.071-2.389      c0.002-0.088,0.018-7.938,0.018-7.938l-0.002-0.006l0.001-0.781c-0.001-0.296,0.144-1.644,0.838-2.343      c0.222-0.223,0.621-0.519,1.522-0.519c3.117,0,5.312,3.5,5.973,4.696v7.682c0,0.873-0.189,1.367-0.356,1.597H17.645z       M43.075,41.269c0,1.353-0.492,1.848-0.796,2.025H30.871c-0.115,0-0.175-0.015-0.188-0.015c-0.001,0-0.002,0-0.002,0.001      c-0.209-0.219-0.356-1.264-0.227-2.131l0.029-10.728c0-0.015,0.051-1.524,1.009-2.487c0.628-0.634,1.597-0.952,2.879-0.952      c4.654,0,7.784,4.132,8.704,5.518V41.269z M59.975,43.27c-0.002,0-0.059,0.024-0.207,0.024H48.356      c-0.305-0.178-0.796-0.675-0.796-2.027v-8.772c0.914-1.394,4.017-5.512,8.705-5.512c3.456,0,3.868,2.422,3.887,3.452v10.357      l0.027,0.357C60.303,41.918,60.181,43.055,59.975,43.27z M72.994,40.686h-8.001c-0.082-0.199-0.278-0.768-0.279-1.597v-7.68      c0.663-1.194,2.87-4.698,5.97-4.698c2.098,0,2.349,2.013,2.359,2.871v9.083l0.02,0.292      C73.136,39.537,73.099,40.279,72.994,40.686z M84.295,39.261h-6.502c-0.101-0.203-0.209-0.587-0.208-1.216v-6.667      c0.59-1.081,2.451-4.066,4.938-4.066c1.57,0,1.763,1.66,1.772,2.366v7.983l0.019,0.283      C84.365,38.366,84.354,38.899,84.295,39.261z" fill="#3B6A75"/><path d="M82.385,55.445c0-2.811-2.158-5.098-4.808-5.098h-5.345c-1.285,0-2.448,0.545-3.313,1.418      c-0.008,0-0.016-0.002-0.024-0.002c-0.423,0-47.955,0.002-47.963,0.002c-0.864-0.873-2.027-1.418-3.313-1.418h-5.345      c-2.65,0-4.807,2.287-4.807,5.098v2.863c-0.813,0.874-2.256,2.845-2.256,5.82v12.342c0,0.578,0.221,1.131,0.618,1.549      c0.437,0.459,11.057,11.27,39.415,11.27c28.479,0,38.131-11.75,38.528-12.252c0.313-0.396,0.484-0.889,0.484-1.395V64.881      c0.178-1.446-0.084-3.907-1.874-5.648V55.445z M72.231,54.836h5.345c0.098,0,0.322,0.23,0.322,0.609v8.627      c0,0.098-0.018,2.387-1.48,2.387c-2.896,0-4.119-1.588-4.509-2.266v-8.755C71.912,55.047,72.139,54.836,72.231,54.836z       M60.299,56.465c0.192,0.018,0.394,0.027,0.602,0.027h5.92c0.209,0,0.411-0.01,0.602-0.027v8.23v1.539      c-0.004,0.266-0.09,2.598-1.886,2.598c-3.383,0-4.794-1.727-5.237-2.453V56.465z M47.225,56.445      c0.293,0.025,0.615,0.047,0.957,0.047h6.668c0.345,0,0.668-0.021,0.965-0.047v10.467v1.379      c-0.055,0.371-0.508,2.377-4.133,2.377c-3.574,0-4.319-2.455-4.46-3.158L47.225,56.445z M34.146,56.445      c0.294,0.025,0.617,0.047,0.961,0.047h6.667c0.343,0,0.668-0.021,0.962-0.047v11.246c0,0.005,0.001,0.01,0.001,0.015v0.585      c-0.053,0.371-0.505,2.377-4.13,2.377c-3.576,0-4.324-2.455-4.464-3.16L34.146,56.445z M28.948,56.492      c0.209,0,0.412-0.012,0.604-0.027v9.908c-0.461,0.752-1.874,2.459-5.235,2.459c-1.71,0-1.875-1.977-1.887-2.564v-1.563      c0-0.004,0.001-0.007,0.001-0.01v-8.23c0.191,0.018,0.393,0.027,0.601,0.027H28.948z M11.954,55.445      c0-0.379,0.222-0.609,0.32-0.609h5.346c0.094,0,0.321,0.211,0.324,0.603v8.749c-0.406,0.701-1.632,2.271-4.512,2.271      c-1.4,0-1.475-2.158-1.479-2.387V55.445z M45.245,84.803c-22.581,0-33.027-7.262-35.547-9.332v-5.908      c0.913,0.831,2.136,1.383,3.734,1.383c2.228,0,3.933-0.577,5.231-1.352c0.887,1.99,2.655,3.725,5.652,3.725      c3.014,0,5.147-0.923,6.63-2.017c1.296,1.995,3.674,3.853,7.659,3.853c3.186,0,5.285-1.062,6.616-2.408      c1.402,1.362,3.476,2.408,6.46,2.408c4.09,0,6.39-1.748,7.567-3.605c1.464,0.982,3.501,1.77,6.287,1.77      c2.96,0,4.728-1.74,5.626-3.74c1.302,0.782,3.014,1.367,5.256,1.367c1.386,0,2.49-0.414,3.355-1.064v4.873      C77.591,76.881,67.938,84.803,45.245,84.803z" fill="#3B6A75"/></g></g></g><path d="M17.318,18.267c-0.886,0-1.725-0.526-2.079-1.396c-0.467-1.146,0.084-2.457,1.23-2.924   c8.565-3.49,14.706-5.149,26.438-5.149c1.239,0,2.243,1.003,2.243,2.242c0,1.238-1.005,2.244-2.243,2.244   c-11.053,0-16.566,1.487-24.745,4.819C17.887,18.213,17.602,18.267,17.318,18.267z" fill="#FFFFFF"/></g></svg>