<?xml version="1.0"?><svg xmlns="http://www.w3.org/2000/svg" width="402" height="242" viewBox="0 0 402 242" fill="none"><rect x="10.1372" y="10.5542" width="381.175" height="220.889" fill="#002986"/><rect x="0.586247" y="2.03628" width="434.006" height="32.4025" rx="3.5" transform="matrix(0.875667 0.482915 -0.484836 0.874605 18.9806 -0.0277686)" fill="white" stroke="black" stroke-width="3"/><rect x="0.586115" y="2.03582" width="233.898" height="12.8787" rx="6.43934" transform="matrix(0.875775 0.48272 -0.485031 0.874497 192.519 107.041)" fill="#C8102E" stroke="black" stroke-width="3"/><rect x="0.586115" y="2.03582" width="233.898" height="12.8787" rx="6.43934" transform="matrix(0.875775 0.48272 -0.485031 0.874497 13.8586 8.53678)" fill="#C8102E" stroke="black" stroke-width="3"/><rect x="2.03433" y="0.610902" width="434.105" height="32.4014" rx="3.5" transform="matrix(0.881216 -0.472714 0.475006 0.879982 -0.048536 209.64)" fill="white" stroke="black" stroke-width="3"/><rect x="2.03125" y="0.621013" width="233.908" height="12.878" rx="6.439" transform="matrix(0.883553 -0.468331 0.470614 0.882339 0.0502321 220.039)" fill="#C8102E" stroke="black" stroke-width="3"/><rect x="2.03915" y="0.59474" width="233.9" height="12.8785" rx="6.43927" transform="matrix(0.877442 -0.479683 0.48199 0.876177 185.716 122.258)" fill="#C8102E" stroke="black" stroke-width="3"/><rect x="4.60205" y="98.6238" width="393.243" height="44.7497" fill="white" stroke="black" stroke-width="5"/><rect x="179.27" y="237.898" width="231.808" height="44.9051" transform="rotate(-90 179.27 237.898)" fill="white" stroke="black" stroke-width="5"/><rect x="190.247" y="236.908" width="231.818" height="21.9525" transform="rotate(-90 190.247 236.908)" fill="#C8102E" stroke="black" stroke-width="3"/><rect x="5.5979" y="110.559" width="391.25" height="21.8748" fill="#C8102E" stroke="black" stroke-width="3"/><rect x="191.5" y="231.5" width="221" height="19" transform="rotate(-90 191.5 231.5)" fill="#C8102E" stroke="#C8102E"/><rect x="10.5" y="112.5" width="380" height="18" fill="#C8102E" stroke="#C8102E"/><rect x="5.10645" y="5.60474" width="391.237" height="230.788" rx="15" stroke="black" stroke-width="10"/><path d="M105.5 240.9H90.5C88.0147 240.9 86 238.885 86 236.4C86 233.915 88.0147 231.9 90.5 231.9H105.5C107.985 231.9 110 233.915 110 236.4C110 238.885 107.985 240.9 105.5 240.9Z" fill="white" stroke="white"/><path d="M314.5 10.1001H299.5C297.015 10.1001 295 8.08538 295 5.6001C295 3.11482 297.015 1.1001 299.5 1.1001H314.5C316.985 1.1001 319 3.11482 319 5.6001C319 8.08538 316.985 10.1001 314.5 10.1001Z" fill="white" stroke="white"/></svg>